<?xml version="1.0" encoding="utf-8"?>
<!-- Generator: Adobe Illustrator 24.0.1, SVG Export Plug-In . SVG Version: 6.00 Build 0)  -->
<svg version="1.1" id="레이어_1" xmlns="http://www.w3.org/2000/svg" xmlns:xlink="http://www.w3.org/1999/xlink" x="0px"
	 y="0px" viewBox="0 0 210 297" style="enable-background:new 0 0 210 297;" xml:space="preserve">
<g>
	<path d="M49.69,150.58c-3.97,0.59-7.95,1.16-11.91,1.78c-1.49,0.23-2.95,0.59-4.43,0.89l0,0c0-0.06-0.02-0.15,0.01-0.17
		c3.07-2.61,2.97-3.93-0.42-6.46c-1.13-0.84-2.29-1.68-3.26-2.69c-1.58-1.66-1.72-3.54-0.2-5.24c1.07-1.2,2.42-2.37,3.89-2.95
		c8.37-3.28,16.79-6.42,25.22-9.54c8.43-3.12,16.92-6.08,25.3-9.3c2.21-0.85,4.25-2.29,6.2-3.69c3.26-2.35,5.33-5.47,5.34-9.63
		c2.81-0.9,4.81,0.7,5.57,4.44c3.14,0.26,6.34,0.29,9.44,0.85c4.85,0.88,9.64,2.07,14.44,3.22c1.43,0.34,1.75,1.52,0.52,2.67
		c-1.15,1.08-2.69,1.81-4.16,2.47c-1.11,0.5-2.41,0.53-3.56,0.96c-3.35,1.25-3.96,3.86-1.48,6.42c2.84,2.93,6.49,4.51,10.41,4.67
		c6.46,0.26,12.94,0.09,19.4-0.14c7.83-0.28,15.65-0.84,23.48-1.16c1.17-0.05,2.46,0.33,3.53,0.85c1.41,0.68,1.87,2.05,1.68,3.6
		c-0.18,1.46-1.36,1.81-2.5,2.15c-5.58,1.65-11.3,2.21-17.1,2.21c-5.36,0-10.73,0.04-16.09,0.29c-8.63,0.4-16.27,3.67-23.1,8.76
		c-4.38,3.27-8.5,6.9-13.14,10.69c5.56,1.76,10.61,3.35,15.72,4.97c-2.67,2.04-5.77,2.32-8.99,2.04c-3.34-0.29-6.68-0.64-10.03-0.86
		c-1.16-0.08-2.34,0.16-3.87,0.27c2.42-2.15,4.64-4.11,7.23-6.42c-2.62-0.75-4.86-1.54-7.16-2.02c-5.35-1.12-10.73-2.15-16.11-3.1
		c-1.06-0.19-2.24-0.06-3.29,0.2c-7.09,1.78-14.23,2.81-21.47,1.07c-1.79-0.43-3.45-1.42-5.17-2.15c7.24-0.09,14.48-0.26,21.71-0.24
		c3.52,0.01,7.05,1.22,10.47-0.77c2.74-1.6,5.82-2.67,8.39-4.48c5.15-3.63,10.1-7.56,15.03-11.48c1.87-1.49,3.59-3.23,5.14-5.05
		c0.51-0.6,0.64-2.05,0.25-2.72c-0.37-0.64-1.75-1.23-2.48-1.04c-2.14,0.54-4.37,1.16-6.21,2.31c-7.44,4.66-15.74,6.34-24.23,7.63
		c-6.51,0.99-13.06,1.95-19.41,3.61c-3.84,1-7.44,3.15-10.98,5.09c-2.21,1.21-2.24,2.57-0.56,4.44
		C47.65,148.81,48.7,149.66,49.69,150.58z"/>
	<path d="M78.95,194.69c-17.86-5.29-34.56-13.23-50.75-22.3c-4.03-2.26-6.91-5.49-7.21-10.41c0,0,0.05-0.06,0.05-0.06
		c9.16-0.38,18.33-0.68,27.49-1.17c7.25-0.39,14.47-0.22,21.64,0.88c3.83,0.59,5.69,2.29,6.12,5.31c-2.31-1.01-4.55-2.23-6.94-2.97
		c-2.8-0.88-5.63-0.57-7.5,1.98c-0.93,1.27-1.23,3-1.89,4.69c-2.98-0.28-6.3-0.66-9.64-0.86c-0.66-0.04-1.77,0.43-1.95,0.93
		c-0.25,0.68-0.08,1.82,0.38,2.39c0.63,0.78,1.63,1.37,2.58,1.75c6.54,2.62,13.11,5.18,19.67,7.74c0.73,0.29,1.5,0.47,1.79,0.56
		c0.84-3.65,1.67-7.1,2.43-10.57c0.41-1.88,0.68-3.79,1.02-5.69c5.37,2.91,10.45,1.96,15.33-1.2c0.66-0.43,1.1-1.19,1.73-1.69
		c0.52-0.42,1.17-0.68,1.97-1.13c-0.14,0.39-0.14,0.5-0.2,0.56c-2.7,2.36-2.64,2.34-1.54,5.77c1.09,3.4,3.24,5.76,6.6,6.85
		c6.15,2,12.31,4,18.54,5.72c5.83,1.61,11.75,2.9,17.67,4.19c1.14,0.25,2.43-0.16,3.65-0.27c9.51-0.83,19-1.85,28.52-2.43
		c11.29-0.68,22.61-0.98,33.92-1.44c0.86-0.03,1.72,0,2.61,0.13c-3.41,1.94-7.1,3.09-10.9,3.68c-9.25,1.43-18.53,2.66-27.8,3.95
		c-4.7,0.66-9.41,1.28-14.1,1.91c0,0.24-0.05,0.39,0.01,0.45c4.97,5.36,0.37,11.51-4.72,12.42c-2.43,0.43-5.04,0.16-7.53-0.11
		c-2.93-0.31-5.73-0.12-8.09,1.7c-5.01,3.85-10.82,4.1-16.55,3.19c-5.25-0.83-10.33-2.71-15.48-4.11
		c-3.35-0.91-6.75-1.64-10.04-2.73c-4.35-1.45-8.2-3.77-10.94-7.61c0.22-0.02,0.47-0.11,0.68-0.05c12.67,3.36,25.47,2.76,38.28,1.23
		c8.71-1.04,17.4-2.27,26.09-3.43c2.3-0.31,4.59-0.66,6.89-0.99c0.02-0.17,0.03-0.33,0.05-0.5c-4.87-2.79-10.08-4.7-15.79-4.45
		c-3.33,0.14-6.62,1.05-9.94,1.49c-6.47,0.85-12.94,1.91-19.44,2.35c-7.86,0.53-15.4-1.61-22.88-3.78
		c-2.96-0.86-5.91-1.78-9.06-2.73C74.53,188.09,76.32,191.58,78.95,194.69z"/>
	<path d="M23.65,155.06c-0.44,0.78-1,1.53-1.3,2.36c-0.52,1.46-0.88,2.99-1.3,4.49c0,0-0.05,0.06-0.05,0.06
		c-5.71,0.56-11.4,1.82-17.11,0.37c3.95-3.78,8.99-4.7,14.01-5.69C19.85,156.27,21.74,155.6,23.65,155.06
		C23.65,155.06,23.65,155.06,23.65,155.06z"/>
	<path d="M33.34,153.25c-2.66,0.56-5.33,1.14-7.99,1.68c-0.55,0.11-1.13,0.09-1.7,0.13c0,0,0.01,0,0,0
		C26.63,153.12,29.98,153.13,33.34,153.25C33.35,153.25,33.34,153.25,33.34,153.25z"/>
</g>
</svg>
