<?xml version="1.0" encoding="utf-8"?>
<!-- Generator: Adobe Illustrator 24.0.1, SVG Export Plug-In . SVG Version: 6.00 Build 0)  -->
<svg version="1.1" id="레이어_1" xmlns="http://www.w3.org/2000/svg" xmlns:xlink="http://www.w3.org/1999/xlink" x="0px"
	 y="0px" viewBox="0 0 210 297" style="enable-background:new 0 0 210 297;" xml:space="preserve">
<path d="M26.96,159.93c0.71-0.66,1.59-1.21,2.09-2c1.15-1.83,2.96-1.82,4.69-1.79c2.25,0.04,4.32-0.3,6.18-1.67
	c0.91-0.67,1.9-1.18,1.36-2.65c-0.18-0.48,0.1-1.13,0.18-1.86c-1.11,0.52-2.06,1.11-3.09,1.4c-0.65,0.18-1.68,0.18-2.07-0.21
	c-0.34-0.34-0.13-1.37,0.06-2.04c0.17-0.64,0.62-1.2,1.18-2.22c-4.68,1.76-9.16,1.73-13.61,1.56c-4.23-0.16-8.45-0.56-12.66-1.01
	c-0.99-0.11-1.91-0.86-2.86-1.32c0.05-0.26,0.1-0.53,0.15-0.79c0.73-0.05,1.47-0.16,2.2-0.15c8.43,0.1,16.85,0.11,25.17-1.55
	c0.91-0.18,1.8-0.54,2.64-0.95c0.33-0.16,0.74-0.76,0.66-1.03c-0.1-0.36-0.63-0.78-1.01-0.83c-0.68-0.08-1.41,0.03-2.09,0.17
	c-5.36,1.14-10.71,2.38-16.23,2.15c-1.95-0.08-3.88-0.46-5.82-0.7c0-0.27,0-0.53-0.01-0.8c0.98-0.15,1.96-0.39,2.95-0.43
	c10.6-0.45,20.66-3.29,30.51-6.96c2.34-0.87,4.37-2.54,6.64-3.65c5.44-2.64,10.93-5.17,16.28-7.68c-2.49-0.53-5.32-1.12-8.15-1.72
	c0.01-0.09,0.02-0.18,0.04-0.27c5.05,0.33,10.1,0.65,15.14,0.98c0,0.09-0.01,0.18-0.01,0.27c-1.25,0.21-2.5,0.42-3.75,0.62
	c-0.01,0.2-0.02,0.4-0.03,0.59c10.09,0.78,20.19,1.55,30.28,2.33c-0.01,0.12-0.02,0.24-0.03,0.35c-4.15,0.28-8.3,0.48-12.43,0.86
	c-6.99,0.65-13.9,1.74-20.58,4c-6.46,2.18-10.91,6.81-14.61,12.3c-0.69,1.03-1.25,2.15-1.99,3.13c-0.5,0.67-1.14,1.32-1.85,1.75
	c-1.33,0.8-1.49,1.71-0.31,2.73c0.04,0.04,0.09,0.08,0.14,0.11c4.68,3.68,4.68,3.68,2.82,9.11c-0.06,0.17-0.11,0.33-0.16,0.5
	c-1.19,4.65-0.74,5.32,3.84,6.3c1.77,0.38,3.49,1.01,5.24,1.5c6,1.67,12,3.32,17.99,4.98c2.27,0.63,4.55,1.21,6.79,1.93
	c1.2,0.39,1.93,0.16,2.68-0.87c1.11-1.51,2.29-3.01,3.66-4.28c1.71-1.58,1.32-3.77,1.93-5.65c0.09-0.27-0.76-1.09-1.3-1.28
	c-3.01-1.03-3.86-1.99-3.98-4.82c-0.1-2.47,1.1-4.19,3.7-5.2c2.69-1.05,5.4-0.96,8.13-0.09c1.75,0.56,2.6,1.75,2.64,3.54
	c0.05,1.95-0.06,3.91,2.07,5.07c0.33,0.18,0.34,1.14,0.3,1.73c-0.03,0.48-0.34,0.95-0.49,1.32c2.76,0.77,5.38,1.55,8.02,2.23
	c2.08,0.54,3.58-0.8,5.19-1.75c0.92-0.54,1.89-0.87,2.61,0.29c0.67,1.08,0.64,2.16-0.37,3.02c-0.53,0.45-1.15,0.86-1.8,1.08
	c-1.44,0.49-2.91,0.94-4.4,1.24c-1.4,0.28-2.33,0.92-2.79,2.33c-0.64,2-1.4,3.97-2.14,6.06c1.85,0.6,3.49,1.13,5.14,1.66
	c-0.01,0.15-0.02,0.31-0.03,0.46c-1.22,0.07-2.44,0.19-3.65,0.19c-0.36,0-0.97-0.27-1.03-0.53c-0.59-2.26-2.58-1.65-4.05-2
	c-3.34-0.79-6.72-1.46-10.2-2.49c5.88-0.4,6.85-4.91,8.32-9.35c-5.42,1.74-10.17,4.06-13.74,8.76c1.63,0.11,3.07,0.21,4.58,0.31
	c-2.14,2.78-4.09,3.4-7.5,2.36c0.7-0.78,1.34-1.51,2.01-2.26c-2.01-0.71-2.01-0.71-5.1,3.33c10.49,1.08,20.17,5,30.22,7.51
	c0,0.19,0,0.39,0,0.58c-1.17,0.08-2.34,0.18-3.52,0.23c-1.63,0.07-3.3-0.08-4.89,0.2c-0.84,0.15-1.57,0.99-2.77,1.8
	c4.18,2.21,7.84,4.13,11.81,6.23c-1.03-3.01-0.11-5.18,1.67-7.25c2.16-2.51,2.1-4.33,0.35-6.7c2.89,0,5.97,0.03,9.04-0.01
	c2.51-0.03,4.27,1.15,4.3,2.98c0.03,2.57-1.94,5.07-4.21,5.03c-2.93-0.05-5.66,0.23-7.67,2.7c-0.1,0.13-0.16,0.29-0.25,0.47
	c0.9,0.17,1.88,0.13,2.56,0.56c0.69,0.43,1.59,1.4,1.51,2.01c-0.1,0.76-1.07,1.94-1.74,1.99c-1.32,0.1-2.76-0.29-4.03-0.79
	c-1.78-0.69-4.04-0.01-4.47,1.85c-0.33,1.44-0.31,3.03-0.17,4.52c0.36,3.62,1.08,7.22,1.29,10.85c0.19,3.38-1.55,4.43-4.79,3.22
	c-3.92-1.47-5.34-4.62-5.82-8.53c-0.29-2.37-0.99-4.7-1.48-7.05c-0.34-1.66-0.64-3.33-0.97-5.06c-1.59,1.55-3.57,2.42-5.94,2.02
	c-0.07-0.17-0.14-0.33-0.21-0.5c2.06-0.95,4.13-1.9,6.34-2.92c0.48-2.59-0.79-4.98-3.9-5.93c-2.85-0.88-5.84-1.35-8.8-1.79
	c-2.09-0.32-4.23-0.26-6.35-0.43c-1.49-0.12-2.88-0.08-4.17,0.92c-0.6,0.47-1.66,1.07-1.98-0.54c-0.03-0.16-0.96-0.15-1.47-0.22
	c0.72-0.16,1.47-0.56,2.14-0.44c2.35,0.4,4.37-0.66,4.87-2.56c0.42-1.56,1.06-3.07,1.62-4.65c0.24,0.11,0.14,0.03,0.04,0.02
	c-0.53-0.02-1.06-0.03-1.59-0.03c-5.02,0.02-9.77-1-14.27-3.35c-3.85-2.01-7.82-3.8-11.75-5.66c-0.52-0.25-1.1-0.36-1.65-0.53
	c0.37,0.98,0.91,1.59,1.43,2.21c0.53,0.63,1.09,1.24,1.57,1.91c1.31,1.81,1.15,3.18-0.54,4.62c-1.81,1.53-3.93,1.71-6.16,1.38
	c-3.13-0.46-6.14-0.04-9.03,1.16c-0.04,0.2-0.07,0.4-0.11,0.6c1.77,0.56,3.53,1.12,5.39,1.71c-0.24,0.5-0.56,1.16-0.91,1.88
	c1.64-0.17,3.21-0.43,4.78-0.49c2.49-0.1,3.12,0.63,2.9,3.14c-0.16,1.81,0.32,2.21,2.1,1.7c0.56-0.16,1.14-0.36,1.63-0.67
	c2.36-1.49,4.85-1.97,7.6-1.36c0.82,0.18,1.75-0.11,2.63-0.17c2.45-0.16,4.9-0.31,7.35-0.46c-1.92,2.01-4.36,2.05-6.73,1.43
	c-3.09-0.81-5.91-0.19-8.76,0.86c-2.61,0.96-5.24,1.89-8.14,2.93c0.06-0.9,0.08-1.28,0.11-1.67c-2.2-0.67-4.83-0.07-8.43,1.96
	c0.16,0.37,0.33,0.75,0.65,1.46c-1.34,0-2.48,0-3.63,0c0,0,0.02,0.05,0.02,0.05c0.57-0.44,1.14-0.87,2.04-1.57
	c-2.68-0.21-4.97-0.4-7.44-0.6c2.51-3.29,6.47-3.74,9.44-5.86c-1.39-0.16-2.77,0.04-4.05-0.23c-0.85-0.18-1.81-0.9-2.21-1.65
	c-0.19-0.36,0.73-1.41,1.27-2.03c0.36-0.42,0.95-0.63,1.54-1.01c-1.63-1.18-3.15-2.28-4.64-3.37c-2.55,1.9-8.53,1.81-10.49-0.15
	c0.9-1.44,2.25-0.88,3.46-0.74c1.15,0.14,6.04-1.65,6.91-2.7c-0.62-0.45-1.23-0.89-1.84-1.33c-1.56-1.15-3.21-2.21-4.66-3.49
	c-1.43-1.26-1.04-2.73,0.75-3.37c0.43-0.16,0.92-0.28,1.37-0.25c3.75,0.27,7.53,0.38,11.25,0.93c3.45,0.51,6.83,1.5,10.14,2.25
	c0.41-2.55-0.75-3.92-3.25-4.51c-1.29-0.31-2.47-1.08-3.67-1.71c-2.37-1.24-4.92-1.53-7.54-1.47c-2.35,0.06-4.71,0.21-7.06,0.21
	c-2.29,0-4.39-0.66-6.19-2.13C26.99,159.89,26.96,159.93,26.96,159.93z M69.84,127.27c-0.58-0.25-1.19-0.75-1.51-0.6
	c-1.07,0.5-2.35,1.03-2.97,1.94c-0.68,1-1.31,1.5-2.48,1.58c-0.68,0.04-1.38,0.32-2.01,0.6c-4.82,2.14-9.04,5.08-12.19,9.37
	c-0.67,0.91-2.11,2.06-0.66,3.14c1.51,1.12,2.17-0.63,2.99-1.53c1.53-1.68,2.91-3.53,4.64-4.97c2.48-2.07,5.19-3.86,7.86-5.68
	c0.42-0.29,1.16-0.09,1.75-0.15c0.46-0.04,1.05,0.04,1.35-0.22c0.95-0.83,1.78-1.78,2.65-2.69
	C69.43,127.9,69.54,127.69,69.84,127.27z"/>
<path d="M88.38,196.95c-1.77-0.32-2.9,0.3-3.02,2.12c-0.15,2.34,0.09,4.69,0.17,7.04c0.05,1.53,0.24,3.07,0.14,4.59
	c-0.15,2.32-1.38,3.49-3.7,3.33c-1.55-0.1-3.09-0.62-4.58-1.13c-1.5-0.51-2.9-1.28-4.39-1.84c-5.12-1.95-8.64,2.68-7.67,6.98
	c0.42,1.83,0.92,3.65,1.46,5.45c0.38,1.27-0.2,1.87-1.34,1.87c-1.04,0-2.16-0.1-3.09-0.5c-7.18-3.09-14.31-6.29-21.49-9.38
	c-3.28-1.41-5.12-3.53-4.73-7.35c0.15-1.47-0.38-3.02-0.67-4.93c-2.06,1.37-3.6,2.42-5.17,3.43c-3.74,2.41-7.57,4.58-12.19,4.7
	c-0.7,0.02-1.41-0.01-2.11-0.06c-1.63-0.1-3.06-0.67-3.69-2.27c-0.66-1.67-0.4-3.38,0.93-4.57c1.3-1.16,2.83-2.09,4.35-2.94
	c1.84-1.03,3.85-1.78,5.68-2.83c2.53-1.45,2.49-4.31,0.4-6.27c-1.01-0.95-1.56-2.58-1.92-4c-0.4-1.58-0.76-2.49-2.74-2.22
	c-2.45,0.33-3.4-0.78-3-3.25c0.26-1.61,0.61-3.28,1.32-4.73c2.01-4.08,3.18-8.32,3.3-12.87c0.03-1.08,0.55-2.14,0.82-3.22
	c0.21-0.83,0.38-1.66,0.65-2.9c1.11-0.83,2.64-0.7,4.85,0.74c0,0,0.02-0.05,0.02-0.05c-1.44,0.27-2.88,0.53-4.48,0.83
	c1.2,1.86,2.7,2.52,4.41,2.95c2.76,0.69,3.22,2.04,1.62,4.33c-0.34,0.48-0.69,0.96-1,1.46c-2.83,4.6-2.68,6.86,0.7,11.03
	c3.2,3.95,3.05,6.9-0.58,10.52c-0.68,0.67-1.43,1.27-2.14,1.9c0.11,0.25,0.21,0.5,0.32,0.75c3.38-0.36,6.77-0.73,10.5-1.13
	c-1.27,1.33-2.3,2.41-3.3,3.45c2.98-0.45,5.9-0.89,8.83-1.33c0,0-0.02-0.05-0.02-0.05c-3.5,1.8-7.14,3.38-9.57,6.62
	c0.83,0.52,1.8,1.12,2.84,1.77c2.25-1.09,4.57-2.37,6.99-3.36c6.57-2.69,13.52-3.71,20.55-3.85c7.42-0.14,14.85,0.13,22.27,0.32
	C86.09,196.13,87.23,196.66,88.38,196.95L88.38,196.95z M31.63,197.13c-1.35,0-2.39-0.04-3.43,0.02c-0.52,0.03-1.16,0.08-1.51,0.39
	c-0.57,0.5-1.12,1.17-1.31,1.87c-0.09,0.32,0.64,1.16,1.12,1.27c0.75,0.17,1.84,0.22,2.35-0.2
	C29.87,199.64,30.58,198.44,31.63,197.13z"/>
<path d="M195.61,134.35c-1.79-1.01-4.99,0.31-4.93-3.36c-2.09,0-4.14,0-6.4,0c0.2-0.47,0.33-0.78,0.49-1.16
	c-10.01-1.75-20.1-0.85-30.46-1.04c2.19-2.04,4.51-2.68,7.1-2.38c2.98,0.34,5.95,0.95,8.94,1.09c1.94,0.09,3.94-0.33,5.86-0.73
	c2.35-0.49,4.64-1.27,6.98-1.78c1.3-0.28,2.46,0.05,3.47,1.19c1.45,1.65,3.32,1.02,5.1,0.5c1.64-0.48,3.29-0.92,5.17-1.44
	c-0.28,3.89-4.13,3.25-5.55,5.45c3.11,0.22,6.09,0.43,9.06,0.64c0.04,0.25,0.09,0.5,0.13,0.74c-1.08,0.6-2.16,1.2-3.69,2.04
	c3.2,0.47,5.98,0.88,8.76,1.3c0.01,0.12,0.03,0.24,0.04,0.36c-2.46,0.93-4.9,1.93-7.39,2.76c-1.67,0.56-3.08,1.26-4.12,2.81
	c-0.49,0.73-1.57,1.18-2.48,1.51c-2.15,0.78-4.42,1.26-6.52,2.15c-2.91,1.24-3.18,2.57-1.35,5.13c1.06,1.48,2.13,2.96,3.35,4.65
	c-3.27,0.65-5.97-0.29-8.42-1.93c-2.44-1.64-4.72-3.51-7.07-5.27c-1.04,0.49-1.35,1.18-0.7,2.23c0.31,0.5,0.51,1.06,0.7,1.62
	c0.91,2.59-0.03,3.81-2.82,3.63c-2.57-0.17-4.17-1.7-5.31-4.05c-6.91,2.7-14.16,4.41-20.49,8.43c-1.09,0.69-2.23,1.33-3.41,1.85
	c-1.19,0.52-2.72,1.56-3.56-0.14c-0.76-1.54,0.93-2.25,1.95-2.86c1.71-1.01,3.56-1.8,5.39-2.62c6.61-2.94,13.22-5.86,19.93-8.83
	c-1.41-4.02-5-4.77-8.43-6.24c1.25-1.52,2.38-2.91,3.57-4.36c-4.34-2.29-9.01-4.05-13.97-4.62c-4.78-0.54-9.63-0.65-14.45-0.72
	c-3.59-0.05-7.04-0.56-10.35-1.91c-3.37-1.38-6.82-2.18-10.48-2.08c-1.15,0.03-2.31-0.24-3.43-0.72c2.43,0.16,4.86,0.42,7.29,0.45
	c2.36,0.02,4.62,0.14,6.99-1.08c1.58-0.81,4.02,0.03,6.07,0.15c0.9,0.05,1.8,0.15,2.7,0.14c-9.5-2.93-19.21-3.82-29.1-3.49
	c-6.24,0.2-12.5-0.04-18.75-0.1c-0.37,0-0.73-0.21-1.06-0.53c6.05-0.37,12.12-1.11,18.16-1c5.92,0.11,11.83,1,17.73,1.71
	c6.95,0.83,13.9,1.74,20.82,2.8c5.46,0.83,10.88,1.93,16.32,2.92c0.14,0.02,0.24,0.2,0.65,0.56c-4.09-0.26-7.86-0.5-11.62-0.73
	c5.44,2.68,11.01,4.5,17.13,4.74c5.22,0.21,10.41,1.05,15.6,1.72c1.07,0.14,2.14,0.65,3.12,1.16c1.21,0.62,1.42,1.59,0.35,2.54
	c-0.97,0.86-1.97,1.71-3.08,2.35c-3.1,1.8-6.2,3.65-9.44,5.18c-1.67,0.79-2.37,1.69-2.04,3.45c0.07,0.4,0.01,0.82,0.01,1.36
	c1.4-0.13,2.41-0.37,2.52-2.05c0.14-2.04,1.85-2.44,3.7-3.2c-0.19,1.32-0.33,2.28-0.46,3.24c0.16,0.01,0.31,0.03,0.47,0.04
	c0.06-0.52,0.11-1.05,0.17-1.57c0.14,0.13,0.29,0.26,0.43,0.39c0.73-0.6,1.63-1.09,2.15-1.84c1.51-2.17,3.62-3.19,6.08-2.78
	c2.05,0.35,3.56-0.31,5.06-1.41c0.43-0.31,0.86-0.65,1.19-1.05c1.54-1.87,3.28-2.83,5.83-1.99c0.64,0.21,1.77-0.42,2.4-0.97
	C194.11,136.49,194.77,135.41,195.61,134.35z"/>
<path d="M88.38,196.95c1.14,0.14,2.3,0.18,3.4,0.46c1.63,0.41,3.22,0.98,4.85,1.85c-1.27,0.34-2.52,0.77-3.81,1.01
	c-1.38,0.25-2.3-0.29-2.8-1.75C89.8,197.89,88.94,197.47,88.38,196.95C88.38,196.95,88.38,196.95,88.38,196.95z"/>
</svg>
