<?xml version="1.0" encoding="utf-8"?>
<!-- Generator: Adobe Illustrator 24.0.1, SVG Export Plug-In . SVG Version: 6.00 Build 0)  -->
<svg version="1.1" id="레이어_1" xmlns="http://www.w3.org/2000/svg" xmlns:xlink="http://www.w3.org/1999/xlink" x="0px"
	 y="0px" viewBox="0 0 210 297" style="enable-background:new 0 0 210 297;" xml:space="preserve">
<path d="M183.05,258.93c-0.75-2.33-0.21-4.6,0.24-6.91c0.45-2.36,1.14-4.77,1.02-7.12c-0.22-4.55-4.58-8.3-9.86-9.13
	c-4.72-0.74-8.95,0.71-13.1,2.68c-7.7,3.66-15.32,7.51-23.14,10.9c-5.06,2.2-10.4,3.73-15.62,5.56c-0.37,0.13-0.76,0.2-1.29,0.34
	c0.01-2.58,1.41-4.17,3.24-5.44c3.45-2.4,7.46-3.39,11.45-4.44c4.6-1.21,9.26-2.29,13.7-3.94c4.32-1.61,7.67-4.59,9.17-9.21
	c2.07-6.4-0.88-11.7-7.45-13.07c-3.27-0.68-6.61-1.02-10.16-1.19c0.66,0.75,1.4,1.45,1.96,2.28c0.94,1.4,1.99,2.79,2.57,4.35
	c0.63,1.7-0.27,3.03-2.07,3.41c-1.6,0.34-3.3,0.28-4.88,0.67c-1.51,0.37-3.06,0.87-4.37,1.68c-7.96,4.94-15.78,10.1-23.81,14.91
	c-2.52,1.51-5.47,2.68-8.36,3.17c-6.74,1.14-12.85,3.72-18.76,6.97c-5.73,3.16-11.55,6.12-18.04,7.46
	c-7.68,1.59-15.33,1.87-22.81-0.88c-6.98-2.57-11.87-7.23-13.29-14.76c-0.4-2.12,0.04-4.43,0.25-6.64c0.12-1.28,0.6-2.52,0.79-3.8
	c0.32-2.12-0.74-3.74-2.71-4.11c-1.66-0.31-3.36-0.47-5.27-0.74c0,0.71,0,1.34,0,1.96c0,6.26-0.11,12.52,0.03,18.78
	c0.11,5.03-2.04,6.81-7.24,6.75c-3.31-0.04-3.52-0.36-4.22-3.58c-1.58-7.23-0.14-14.2,1.86-21.07c1.97-6.77,4.21-13.47,6.36-20.19
	c1.2-3.74,2.97-7.18,5.53-10.18c3.55-4.16,6.24-8.84,8.5-13.8c2.09-4.59,4.94-8.42,10.03-10.07c1.74-0.57,2.61-1.99,2.43-3.87
	c-0.38-3.93,1.22-7.07,3.65-10c1.8-2.17,3.51-4.44,4.98-6.83c1.13-1.84,1.47-4.02,0.58-6.11c-0.23-0.54-1.03-1.14-1.6-1.19
	c-3.56-0.29-6.43,1.07-8.58,3.93c-0.5,0.66-0.86,1.55-1.51,1.92c-0.76,0.44-2.05,0.85-2.62,0.5c-0.56-0.35-0.95-1.87-0.65-2.53
	c0.52-1.17,1.52-2.21,2.52-3.08c0.87-0.76,2.09-1.1,3.01-1.83c1.32-1.05,2.73-2.1,3.68-3.45c1.29-1.84,0.43-3.81-1.77-4.36
	c-1.53-0.38-3.14-0.4-4.71-0.59c-1.37-0.17-2.56-0.66-2.97-2.1c-0.44-1.52,0.34-2.6,1.47-3.52c3.67-2.96,11.28-1.68,13.76,2.34
	c1.33,2.16,1.45,4.42,0.22,6.97c5.19,0.18,9.23-1.59,12.4-5.41c0.9-1.09,1.7-2.34,2.81-3.15c0.79-0.57,2.12-0.87,3.02-0.62
	c0.45,0.13,0.89,1.89,0.62,2.69c-0.94,2.83-1.79,5.81-3.37,8.29c-3.86,6.07-5.03,12.6-4.42,19.61c0.18,2.11,0.2,4.23,0.38,6.34
	c0.06,0.67,0.42,1.32,0.69,2.1c9.61-5.86,16.93-13.04,17.05-25.12c0.03-3.53,0.23-7.07-0.01-10.58c-0.21-3.11-1.96-5.46-4.67-7.1
	c-13.36-8.08-26.7-16.2-40.06-24.28c-2.92-1.77-5.88-3.43-9.36-3.97c-2.97-0.46-4.26-2.73-4.98-5.36c-0.54-1.98-0.85-4.04-1.47-5.99
	c-1.28-4.06-3.72-7.33-7.17-9.83c-1.64-1.19-2.19-2.48-1.08-4.2c0.94-1.46,2.38-2.72,3.86-3.66c1.14-0.72,2.66-0.93,4.04-1.14
	c4.78-0.73,8.32-3.25,10.64-7.4c1.89-3.39,3.54-6.91,5.24-10.41c3.37-6.97,6.95-13.82,12.35-19.48c4.65-4.87,10.03-8.63,16.8-9.84
	c9.36-1.66,17.47,0.92,24.31,7.52c2.33,2.25,4.63,4.55,7.08,6.68c3.53,3.07,7.73,4.06,12.35,3.65c2.11-0.19,4.24-0.26,6.36-0.26
	c7.11-0.01,11.67,3.62,12.38,10.65c0.45,4.4,0.02,8.92-0.23,13.37c-0.16,2.93-1.95,4.81-4.67,5.86c-3.57,1.37-7.1,2.85-10.68,4.18
	c-1.23,0.45-2.06,1.15-2.32,2.39c-0.53,2.58-1.27,5.17-1.39,7.78c-0.17,3.76,0.15,7.54,0.22,11.32c0.14,7.98-2.05,15.24-6.91,21.63
	c-0.14,0.18-0.24,0.39-0.54,0.88c0.86-0.06,1.51-0.07,2.15-0.17c6.9-1.01,11.67-4.97,14.99-10.9c1.15-2.05,2.19-4.17,3.24-6.28
	c2.22-4.45,5.97-6.75,10.75-7.35c3.79-0.48,5.55,1.95,3.82,5.36c-1.3,2.56-3.08,4.88-4.64,7.31c-2.88,4.48-5.62,9.09-6.25,14.47
	c-0.42,3.55-0.15,7.18-0.24,10.78c-0.04,1.35-0.11,2.72-0.41,4.03c-0.52,2.29-1.82,4.06-4.01,5.09c-1.06,0.5-2.2,0.93-3.12,1.64
	c-0.86,0.65-1.66,1.53-2.15,2.48c-0.75,1.46-0.24,2.24,1.39,2.61c7.29,1.65,14.57,3.29,21.86,4.93c3.83,0.86,4.57,1.67,4.97,5.62
	c0.17,1.66,1.21,2.08,2.65,2.23c8.51,0.92,16.56,3.35,24.22,7.23c1.96,0.99,3.14,2.07,2.79,4.39c-0.22,1.46,0.48,2.23,1.87,2.9
	c4.87,2.35,9.64,4.92,14.47,7.38c3.71,1.89,5.29,4.9,5.26,9.05c-0.04,5.96,0.38,11.92,0.18,17.87c-0.14,4.09-0.9,8.17-1.55,12.23
	c-0.33,2.09-1.42,3.64-3.76,4.15c-1.62,0.35-1.64,1.85-1.42,3.19c0.43,2.61,1.08,5.2,1.39,7.82c0.58,4.93,0.13,9.67-3.32,13.66
	C187.76,257.57,185.76,258.66,183.05,258.93z M64.81,185.49c2.65-2.22,5.3-4.43,7.96-6.65c-0.06-0.14-0.12-0.28-0.18-0.42
	c-2.15,0.87-3.82,0.06-5.32-1.51c-6.41,4.39-13.48,7.3-20.47,10.39c-2.55,1.12-4.94,2.74-7.14,4.47c-2.38,1.87-3.5,4.59-3.36,7.64
	c0.08,1.63,0.45,3.26,0.78,4.88c1.07,5.34,0.21,7.44-4.29,10.46c-0.77,0.52-1.49,1.1-2.5,1.85c1.56,0.1,2.68,0.15,3.79,0.25
	c3.4,0.33,5.26-0.84,6.28-4.07c0.87-2.75,1.62-5.53,2.53-8.26c1.37-4.1,3.08-8.03,6.18-11.18c4.36-4.42,10.17-5.94,15.76-7.89
	c-4.14,3.5-8.27,7.02-12.43,10.5c-2,1.68-2.47,3.62-1.72,6.15c0.69,2.29,1.13,4.7,1.32,7.09c0.44,5.47-0.74,10.64-3.28,15.52
	c-1.39,2.68-2.02,5.49-1.27,8.54c0.29,1.19,0.26,2.45,0.35,3.68c0.35,4.61,3.3,7.8,6.07,11.07c0.24,0.29,0.72,0.38,1.09,0.56
	c3.27,1.62,6.53,0.65,9.84,0.05c11.09-2.03,20.74-6.45,27.64-15.81c5.34-7.23,12.67-11.12,21.37-13.01
	c3.43-0.75,6.87-2.21,9.85-4.08c5.2-3.26,6.11-8.29,3.13-13.67c-2.07-3.74-5.02-6.69-8.35-9.27c-5.43-4.19-10.61-8.59-14.54-14.34
	c-2.2-3.23-5.37-5.45-9.04-6.85c-5.66-2.17-11.02-2.36-15.69,2.35c-1.28,1.29-2.79,2.36-4.2,3.53c-1.05,0.88-2.47,1.48-2.14,3.31
	c0.05,0.27-0.51,0.77-0.88,0.97C69.6,183.02,67.2,184.25,64.81,185.49z M20.19,79.61c0.95,0.52,1.56,0.88,2.18,1.19
	c4.77,2.41,7.46,6.02,6.81,11.62c-0.08,0.7-0.02,1.42-0.01,2.12c0.05,2.92,1.24,5.25,3.7,6.85c1.08,0.7,2.21,1.37,3.38,1.91
	c8.98,4.13,17.97,8.24,26.97,12.31c6.16,2.79,12.28,5.8,19.09,6.63c7.15,0.87,10.68,0.79,15.64-6.72
	c5.09-7.71,6.55-16.12,3.16-24.92c-3.68-9.54-7.49-19.04-11.53-28.44c-3.12-7.24-8.14-13.1-14.62-17.61
	c-10.58-7.37-24.34-3.56-29.65,8.18c-0.94,2.09-1.73,4.25-2.49,6.41c-2.08,5.98-5.28,11.16-10.42,15.01
	C28.87,76.81,24.92,78.57,20.19,79.61z M99.28,137.97c-0.18,0.07-0.36,0.14-0.55,0.2c0,1.1,0.02,2.2,0,3.3
	c-0.1,4.47-0.41,8.89-1.5,13.29c-0.74,2.98-0.98,6.19-0.82,9.27c0.25,4.8,2.62,8.35,7.44,9.88c1.23,0.39,2.46,0.77,3.7,1.15
	c5.76,1.76,10.51,5.16,14.93,9.14c1.53,1.37,3.34,2.44,5.29,3.85c-0.26-3.83,0.93-6.04,3.91-7.73c0.87-0.49,1.82-0.84,2.72-1.27
	c1.16-0.56,2.37-1.07,3.46-1.75c3.05-1.91,3.9-4.95,2.46-8.28c-1.21-2.78-3.37-4.62-6.16-5.44c-3.26-0.95-6.62-1.56-9.97-2.19
	c-3.18-0.6-6.4-0.99-9.58-1.56c-2.4-0.43-3.01-1.54-2.35-3.91c0.25-0.9,0.52-1.8,0.79-2.71c0.51-1.77-0.1-3.15-1.56-4.13
	c-0.77-0.52-1.63-0.97-2.5-1.29c-3.07-1.13-5.29-3.21-6.97-5.96C101.2,140.49,100.2,139.25,99.28,137.97z M100.33,52.9
	c-0.62-2.23-0.93-4.24-1.73-6.03c-2.85-6.38-8.29-9.47-14.78-10.85c-2.48-0.53-5.14-0.48-7.7-0.34c-1.94,0.11-2.3,1.31-0.97,2.74
	c1,1.07,2.13,2.05,3.33,2.89c2.43,1.7,4.1,3.97,5.66,6.45c2.82,4.48,5.84,8.84,8.87,13.18c1.48,2.12,3.55,2,4.63-0.37
	C98.77,58.09,99.47,55.41,100.33,52.9z M79.02,251.97c0.13,0.14,0.26,0.28,0.39,0.42c0.34-0.02,0.7,0.04,1.01-0.07
	c3.35-1.22,6.84-2.18,10-3.78c5.09-2.59,10.12-5.23,15.61-6.9c1.34-0.41,2.7-0.94,3.85-1.72c1.38-0.93,2.79-2.02,3.75-3.35
	c1.14-1.58,0.35-2.7-1.56-2.61c-0.59,0.03-1.17,0.12-1.75,0.21c-10.27,1.59-18.73,7.01-26.87,12.98
	C81.72,248.41,80.48,250.34,79.02,251.97z M140.2,193.7c-0.23,0.59-0.24,0.74-0.32,0.8c-0.32,0.26-0.66,0.49-0.98,0.74
	c-3.9,3.05-6.09,6.96-5.97,12c0.12,4.89,3.14,8.85,7.24,9.54c-1.41-3.31-1.54-6.71-1.03-10.22c0.56-3.88,2.09-7.34,4.17-10.58
	c1.28-1.98,0.9-3.78-0.31-5.58c-2.29-3.4-6.83-4.19-10.39-2.07C135.09,190.09,137.7,191.93,140.2,193.7z M50.33,255.02
	c0.1,0,0.51,0,0.93,0c1.29-0.01,2.59-0.17,3.02-1.6c0.46-1.51-0.84-2.05-1.84-2.6c-2.63-1.42-4.52-3.56-6-6.07
	c-1.07-1.82-1.92-3.77-3.02-5.57c-0.85-1.39-1.85-2.72-2.94-3.93c-0.38-0.42-1.31-0.64-1.85-0.48c-0.38,0.11-0.72,1.02-0.74,1.58
	c-0.06,2-0.1,4.01,0.09,6c0.27,2.92,0.56,5.87,2.3,8.4C42.65,254.18,46.2,254.9,50.33,255.02z M103.22,124.14
	c-3.03,0.15-6.09,0.09-9.09,0.51c-3.33,0.46-5.97,2.04-6.77,5.72c-0.69,3.19,1.03,5.41,4.32,5.56c2.29,0.1,4.58,0.35,7.02,0.54
	C98.93,132.24,99.78,127.85,103.22,124.14z M29.7,217.1c-3.27,0.33-5.54,2.55-5.44,5.55C26,220.89,27.73,219.12,29.7,217.1z"/>
</svg>
