<?xml version="1.0" encoding="utf-8"?>
<!-- Generator: Adobe Illustrator 24.0.1, SVG Export Plug-In . SVG Version: 6.00 Build 0)  -->
<svg version="1.1" id="레이어_1" xmlns="http://www.w3.org/2000/svg" xmlns:xlink="http://www.w3.org/1999/xlink" x="0px"
	 y="0px" viewBox="0 0 210 297" style="enable-background:new 0 0 210 297;" xml:space="preserve">
<g>
	<path d="M109.86,118.38c0.23,1.62-0.54,2.29-2.03,2.94c-2.5,1.09-4.83,2.58-7.12,4.07c-0.52,0.34-0.57,1.39-0.84,2.12
		c0.69,0.03,1.51,0.31,2.06,0.04c3.28-1.62,6.53-1.28,9.72,0.07c4.93,2.08,9.96,2.63,15.31,2.33c4.53-0.26,9.12,0.63,13.68,0.91
		c1.62,0.1,3.26-0.09,4.9-0.15l-0.05-0.05c0.53,1.36,1.03,2.73,1.59,4.07c0.99,2.38,0.61,4.13-1.66,5.42
		c-2.39,1.36-4.99,2.36-7.47,3.59c-0.87,0.43-1.63,1.09-2.46,1.61c-0.59,0.37-1.23,0.99-1.81,0.96c-2.02-0.11-2.87,1.23-3.88,2.57
		c-0.68,0.9-1.65,1.59-2.54,2.16c0.96-1.41,1.88-2.86,2.9-4.22c0.27-0.37,0.84-0.56,1.3-0.73c0.75-0.27,1.59-0.36,2.3-0.7
		c2.86-1.36,3.71-3.14,3.26-6.34c-0.18-1.27-0.97-1.43-2.02-1.41c-3.83,0.07-7.66,0.11-11.5,0.17c-2.5,0.04-4.86-0.22-6.17-2.84
		c-0.18-0.37-0.7-0.73-1.11-0.79c-3.95-0.56-7.89-1.63-11.89-0.5c-0.72,0.2-1.29,0.89-1.98,1.26c-1.01,0.55-2.03,1.29-3.12,1.46
		c-3.13,0.47-5.44,2.15-7.84,4.08c-4.31,3.46-8.77,6.78-13.45,9.7c-9.66,6.01-18.24,13.4-27.14,20.4
		c-5.72,4.49-11.2,9.24-15.51,15.18c-0.65,0.89-1.23,1.84-2.1,3.17c2.84,0.3,5.32,0.82,7.79,0.79c8.84-0.1,16.84,3,24.83,6.17
		c4.54,1.8,9.1,3.54,13.57,5.48c2.27,0.98,4.04,2.65,4.78,5.16c0.55,1.86-0.08,3.56-1.55,3.72c-0.82,0.09-1.71-0.44-2.69-0.73
		c-1.2,1.34-0.81,2.75,0.2,4.04c0.94,1.2,2.04,2.28,3.07,3.42c0.92,1.01,0.5,4.21-0.71,4.76c-0.23,0.11-0.86-0.54-1.23-0.91
		c-0.33-0.34-0.68-1.16-0.79-1.12c-0.56,0.2-1.14,0.52-1.52,0.97c-0.41,0.48-0.54,1.17-0.89,1.71c-0.83,1.32-1.88,1.62-3.28,0.75
		c-2.43-1.51-4.44-0.78-5.32,1.88c-0.67,2.03-1.81,3.51-3.97,4.14c-0.55,0.16-1.1,0.79-1.4,1.33c-1.56,2.84-3.97,4.31-7.15,4.41
		c-0.62,0.02-1.76-0.54-1.8-0.91c-0.06-0.66,0.46-1.45,0.9-2.06c0.29-0.4,0.88-0.57,1.33-0.85c1.78-1.1,2.09-2.31,0.84-4.05
		c-0.78-1.09-1.82-2-2.71-3.01c-0.77-0.87-0.66-1.6,0.48-2.03c1.48-0.57,2.96-0.88,4.31,0.31c0.97,0.85,1.97,0.85,2.79-0.11
		c1.62-1.89,3.68-2.56,6.09-2.7c2.17-0.12,2.95-1.03,3.2-3.22c0.33-2.93-0.39-5.54-2-8.05c-2.91-4.51-6.9-7.68-11.63-10.04
		c-7.98-3.98-16.5-5.78-25.32-6.47c-1.36-0.11-1.95,0.41-2.52,1.56c-0.96,1.95-2.09,3.82-3.22,5.68c-0.73,1.2-1.78,1.61-3.18,1.03
		c-1.63-0.67-3.36-1.12-4.94-1.88c-0.85-0.41-1.77-1.12-2.15-1.93c-0.25-0.54,0.22-1.66,0.72-2.21c0.25-0.28,1.32,0.01,1.92,0.27
		c0.44,0.19,0.74,0.74,1.38,1.43c1.19-1.74,2.29-3.34,3.71-5.39c-4.41-0.42-8.14-3.1-12.37-0.45c-2.38,1.49-4.18,1.01-6.43-1.06
		c-0.21-0.19-0.52-0.27-0.76-0.44c-0.4-0.27-0.79-0.56-1.19-0.84c0.38-0.41,0.7-1.08,1.15-1.19c1.59-0.38,3.22-0.62,4.85-0.83
		c1.22-0.16,2.26-0.2,2.24-1.98c-0.01-0.53,1.44-1.62,2.08-1.52c2.05,0.31,4.11,0.89,6.04,1.67c2,0.81,3.85,1.98,5.99,3.11
		c1.8-4.27,5.32-6.52,8.79-8.88c1.15-0.78,2.02-2.12,2.73-3.37c1.02-1.79,2.53-2.81,4.4-3.27c3.37-0.82,6.13-2.57,8.61-4.95
		c1.61-1.55,3.48-2.83,5.13-4.35c1.77-1.64,3.58-3.28,5.06-5.17c2.46-3.13,5.4-5.55,8.99-7.25c2.96-1.4,5.59-3.26,7.56-5.93
		c-0.9-1.82-2.46-2.13-4.83-1.73c0.79-1.19,1.3-1.91,1.76-2.66c0.49-0.78,1.14-1.54,1.37-2.4c1.28-4.82,4.15-8.6,8.36-10.96
		c4.81-2.69,9.98-4.73,14.99-7.06l-0.05-0.04c-0.01,0.77-0.01,1.54-0.02,2.31c0.78-0.02,1.61,0.13,2.33-0.09
		c2.69-0.78,5.34-1.68,8-2.54L109.86,118.38z M101.14,122.07c-0.19-0.23-0.38-0.46-0.57-0.7c-4.23,1.66-8.57,3.09-12.65,5.07
		c-1.79,0.86-3.31,2.64-4.46,4.34c-1.18,1.75-1.84,3.88-2.53,5.9c-0.19,0.57,0.25,1.41,0.53,2.07c0.06,0.13,0.79,0.16,1.05-0.01
		c1.54-0.98,3.1-1.94,4.5-3.09c0.73-0.59,1.15-1.55,1.98-2.73c-1.82,0-2.98,0-4.22,0c0.07-1.86,1.06-3.04,2.45-3.74
		c1.56-0.79,3.24-1.37,4.92-1.88c2.71-0.82,5.48-1.46,7.62-3.46C100.3,123.33,100.69,122.66,101.14,122.07z M25.18,190.21
		c1.43,0.32,2.73,0.64,4.04,0.89c2.62,0.49,2.62,0.47,3.57-2.27c-1-0.31-1.99-0.62-2.98-0.93c-0.98-0.31-1.97-0.62-3.01-0.95
		C26.23,188.1,25.74,189.09,25.18,190.21z M81.97,139.45c-1.11,1.25-2.22,2.49-3.36,3.78c1.96,0.9,3.57,0.61,4.31-0.69
		C83.61,141.32,83.36,140.32,81.97,139.45z"/>
	<path d="M145.55,130.7c0.82-0.7,1.54-1.74,2.48-2.02c2.29-0.67,4.68-0.98,7.04-1.42c0.28-0.05,0.65-0.08,0.87,0.05
		c2.76,1.7,5.91,0.81,8.83,1.41c1.65,0.34,3.29,0.91,4.83,1.61c3.49,1.58,7.17,2.14,10.94,2.53c2.66,0.28,5.28,0.98,7.92,1.44
		c0.49,0.08,1.13,0.05,1.52-0.21c0.78-0.51,1.48-1.17,2.15-1.83c1.82-1.77,1.3-4.09-1.17-4.64c-1.24-0.28-2.65,0.06-3.97,0.25
		c-1.8,0.26-3.58,0.65-5.37,0.99c-0.05-0.22-0.11-0.45-0.16-0.67c0.67-0.22,1.33-0.45,2.01-0.66c4.66-1.46,9.29-2.99,13.98-4.32
		c1.61-0.45,3.37-0.59,5.04-0.48c1.04,0.06,2.04,0.84,3.47,1.48c-0.91,0.55-1.28,0.81-1.67,1c-2.88,1.42-4.98,3.49-5.92,6.66
		c-0.7,2.39-2.44,3.98-4.42,5.34c-1.01,0.7-1.98,1.45-3.28,2.39c1,0.2,1.67,0.28,2.31,0.47c1.31,0.4,2.43,0.94,2.17,2.68
		c-0.17,1.14,0.46,1.61,1.58,1.53c0.53-0.04,1.13-0.15,1.57,0.06c0.46,0.21,1.03,0.74,1.05,1.16c0.02,0.37-0.64,1.1-1.03,1.11
		c-2.77,0.12-4.43,2.02-6.21,3.7c-0.9,0.85-1.69,1.81-2.49,2.75c-2.19,2.6-4.79,4.48-8.25,5.06c-2.48,0.42-4.35,1.7-5.26,4.17
		c-0.86,2.33-2.67,3.67-4.92,4.5c-0.72,0.26-1.43,0.57-2.16,0.76c-2.08,0.54-3.38,1.75-4.63,3.61c-1.71,2.52-4.21,4.5-6.37,6.71
		c0.54-1.45,1.01-2.94,1.63-4.36c0.82-1.89,1.76-3.74,2.65-5.6c-0.16-0.15-0.32-0.3-0.48-0.45c-0.8,0.12-1.6,0.23-2.86,0.41
		c0.91,0.67,1.32,0.97,1.73,1.26c-1.18,0.29-2.23,0.03-3.24,0.15c-0.72,0.08-1.38,0.66-2.07,1.02c0.34,0.52,0.58,1.17,1.04,1.54
		c1.25,1.01,1.31,2.4-0.12,3.27c-0.83,0.5-1.84,0.71-2.79,0.99c-2.22,0.65-2.76,1.34-2.58,3.61c0.07,0.96,0.29,1.91,0.46,3.02
		c2.37-1.74,4.53-3.33,6.69-4.93c0.77,1.57,1.49,3.17,2.33,4.69c1.17,2.11,2.1,4.14,0.03,6.29c-0.19,0.2,0.07,1.18,0.4,1.5
		c1.31,1.26,2.84,2.3,4.09,3.62c0.94,0.98,1.21,2.55,2.92,2.88c0.39,0.08,0.77,1.26,0.79,1.94c0.02,0.78-0.36,1.58-0.57,2.38
		c1.85,1.03,2.47,0.27,2.79-3.46c2.04-0.29,3.65,1.13,3.05,3.21c-0.61,2.08-1.79,4.06-3.02,5.88c-0.92,1.36-2.31,2.38-3.73,3.43
		c0.17-4.18-0.23-8.07-2.07-11.7c-1.46,0.67-2.83,1.3-4.47,2.06c-0.34-1.71-0.63-3.11-0.94-4.68c-1.86,0.64-2.63-0.62-3.39-2.01
		c-1.14-2.11-2.35-4.17-3.72-6.57c-0.94,1.14-1.94,2.06-2.56,3.2c-0.44,0.81-0.68,1.96,0.89,2.31c0.75,0.17,1.41,0.69,2.12,1.05
		c-0.63,0.58-1.26,1.16-1.89,1.75c-0.12-0.11-0.24-0.21-0.36-0.32c-0.54,2.4-1,4.83-1.66,7.21c-0.29,1.04-0.79,2.13-1.5,2.92
		c-1.03,1.15-2.7,0.74-3.75-0.83c1.89-1.11,3.51-2.44,2.65-5.21c-0.51,0.14-0.98,0.31-1.47,0.4c-1.52,0.29-2.85-0.07-3.75-1.37
		c-0.88-1.27-0.41-2.5,0.45-3.57c0.81-1.01,1.69-1.97,2.61-2.88c2.23-2.18,2.35-4.75,1.48-7.51c-0.11-0.35-0.55-0.64-0.9-0.87
		c-0.44-0.28-1.34-0.49-1.33-0.7c0.03-0.71,0.2-1.56,0.64-2.07c0.4-0.45,1.21-0.64,1.87-0.75c3.04-0.49,4.26-1.72,4.55-4.68
		c0.06-0.59,0.2-1.16,0.26-1.75c0.1-0.94,0.11-1.64,1.44-1.99c0.9-0.24,1.73-1.59,2.15-2.63c0.76-1.89,1.24-3.91,1.76-5.89
		c0.84-3.21,2.15-5.84,4.77-8.31c5.62-5.3,12.93-7.9,18.75-12.75c0.44-0.37,0.91-0.69,1.78-1.35c-2.06,0-3.67-0.05-5.27,0.01
		c-2.72,0.11-5.17-0.47-7.56-1.92c-1.11-0.68-2.85-0.88-4.14-0.58c-2.53,0.58-4.99,1.27-7.63,1.11c-0.83-0.05-1.69,0.42-2.54,0.64
		c-0.69,0.18-1.38,0.34-2.19,0.15c1.06-0.44,2.13-0.89,3.31-1.38c-0.88-2-1.74-3.98-2.94-6.71c-1.89-0.36-4.5-0.85-7.13-1.35
		C145.51,130.65,145.55,130.7,145.55,130.7z M162.48,167.37c3.09-0.75,4.85-2.34,5.57-5.17c0.27-1.05,0.82-2.54,1.61-2.84
		c3.28-1.21,6.75-1.92,10.05-3.08c1.08-0.38,2.34-1.41,2.71-2.43c0.82-2.25,1.72-4.33,3.48-6.02c0.65-0.62,1.43-1.56,0.42-2.43
		c-0.87-0.75-1.73-1.54-3.22-0.59c-4.86,3.1-9.86,6-14.8,8.98c-0.39,0.23-0.96,0.49-1.05,0.84c-0.65,2.41-2.34,3.84-4.34,5.12
		c-0.46,0.29-0.78,1.8-0.55,1.98c1.14,0.89,0.56,1.95,0.52,2.93C162.86,165.46,162.66,166.26,162.48,167.37z M191.24,136.16
		c-0.97-0.59-1.44-0.88-1.9-1.16c-2.37,1.87-4.62,3.65-6.77,5.34c0.55,1.24,1.04,2.34,1.6,3.6c1.96-1.38,3.63-2.57,5.38-3.81
		C188.49,138.35,188.96,137.05,191.24,136.16z M154.02,132.43c1.35,1.03,2.48,2.07,3.78,2.8c0.53,0.29,1.44-0.11,2.18-0.2
		c-0.11-0.74,0.04-1.73-0.39-2.17C158.35,131.58,155.82,131.46,154.02,132.43z"/>
	<path d="M99.64,118.76c-2.73-1.22-5.58-1.64-8.54-1.26c-0.75,0.1-1.5,0.3-2.22,0.56c-2.09,0.74-3.51-0.24-5.06-2.34
		c-0.48,1.92-0.86,3.38-1.21,4.84c-0.21,0.87-0.06,2.23-1.38,2c-0.79-0.14-1.71-1.01-2.05-1.78c-0.46-1.03-0.42-2.28-0.63-3.69
		c-0.87,0.35-1.7,0.71-2.54,1.03c-1.21,0.47-2.46,0.6-2.9-0.92c-0.52-1.82-1.83-2.46-3.44-2.89c-0.85-0.22-1.73-0.45-2.49-0.87
		c-0.48-0.27-0.76-0.89-1.13-1.36c0.57-0.21,1.15-0.62,1.7-0.58c1.58,0.11,3.14,0.45,4.72,0.63c1.23,0.14,2.47,0.34,3.7,0.26
		c5.02-0.32,9.92,0.55,14.88,1.1c3.17,0.35,6.45-0.35,9.68-0.38c1.08-0.01,2.29,0.38,3.22,0.94c1.67,1.01,3.14,1.46,5.07,0.47
		c5.7-2.94,11.51-5.66,17.24-8.55c2.59-1.31,4.93-2.97,6.55-5.52c0.48-0.75,1.43-1.21,2.16-1.8c0.18,0.09,0.35,0.18,0.53,0.27
		c0.12,1.29,0.25,2.58,0.38,3.91c0.26-0.05,0.46-0.02,0.58-0.11c3.6-2.74,7.21-5.47,10.78-8.25c1.11-0.86,2.3-1.73,3.11-2.85
		c0.59-0.82,0.61-2.05,0.92-3.08c0.32-1.06,0.46-2.27,1.09-3.1c0.68-0.9,1.78-1.53,2.78-2.14c2.04-1.24,2.48-1.03,3.94,0.89
		c0.39,0.52,1.36,0.77,2.09,0.83c0.98,0.09,2.04-0.35,2.96-0.13c0.87,0.21,2.17,0.91,2.25,1.54c0.12,0.9-0.43,2.29-1.17,2.8
		c-1.26,0.89-2.86,1.29-4.35,1.83c-0.66,0.24-1.37,0.32-2.06,0.45c-3.24,0.62-5.79,2.28-8.14,4.62c-2.19,2.17-4.72,4.05-7.3,5.77
		c-8.75,5.84-18.12,10.51-27.83,14.5c-1.84,0.75-3.75,1.33-5.63,1.99c0,0,0.03,0.03,0.03,0.03c-0.73-2.67-1.96-3.24-4.49-2.13
		c-1.93,0.85-3.88,1.63-5.82,2.44L99.64,118.76z"/>
	<path d="M151.68,140.41c-1.58,0.86-3,1.63-4.84,2.62c1.65,1,2.99,1.81,4.42,2.68c-0.39,0.65-0.73,1.22-1.2,2.01
		c1.3,0,2.38,0,3.67,0c-0.84,1.94-2.27,3.04-3.91,3.55c-2.68,0.83-5.44,1.44-8.21,1.94c-5.29,0.95-10.06,3.24-14.8,5.57
		c-8.38,4.13-16.34,8.91-22.99,15.63c-4.96,5.01-8.29,10.94-10.25,17.69c-0.44,1.51-0.95,3.06-1.75,4.39
		c-1.31,2.18-3.53,2.72-5.77,1.52c4.21-4.24,5.29-9.98,7.5-15.19c2.26-5.34,6.45-9.08,10.49-12.95c0.85-0.81,1.85-1.48,2.67-2.32
		c1.31-1.36,2.92-2.26,3.78-4.29c0.79-1.84,2.98-3.08,4.32-4.36c0.09-0.92-0.09-1.81,0.27-2.32c0.8-1.12,1.7-2.44,2.88-2.97
		c2.47-1.11,5.15-1.75,7.75-2.59c0.08,0.19,0.16,0.38,0.24,0.57c-2.91,1.94-5.81,3.89-8.72,5.83c0.07,0.14,0.14,0.29,0.2,0.43
		c1.27-0.49,2.59-0.89,3.81-1.48c3.74-1.82,7.49-3.36,11.83-2.92c0.9,0.09,2.05-0.74,2.85-1.42c3.38-2.82,6.68-5.74,10-8.65
		c0.31-0.27,0.67-0.69,0.69-1.06c0.08-2.3,1.43-3.29,3.68-2.59C150.71,139.89,151.11,140.14,151.68,140.41z"/>
</g>
</svg>
