<?xml version="1.0" encoding="utf-8"?>
<!-- Generator: Adobe Illustrator 24.0.1, SVG Export Plug-In . SVG Version: 6.00 Build 0)  -->
<svg version="1.1" id="레이어_1" xmlns="http://www.w3.org/2000/svg" xmlns:xlink="http://www.w3.org/1999/xlink" x="0px"
	 y="0px" viewBox="0 0 1080 1080" style="enable-background:new 0 0 1080 1080;" xml:space="preserve">
<path d="M347.97,529.87c-1.08,30.22-13.09,53.9-36.02,71.03c-20.24,15.11-44.66,22.67-73.26,22.67c-16.19,0-30.15-1.55-41.89-4.66
	c-17.54-4.45-36.63-13.15-57.27-26.11l20.64-67.79c9.04,7.42,17.13,13.22,24.28,17.4c16.86,9.85,32.85,14.91,47.96,15.18
	c6.07,0.14,11.33-1.08,15.79-3.64c5.13-2.96,7.69-7.01,7.69-12.14c0-9.17-7.62-14.57-22.87-16.19
	c-27.93-2.97-49.52-11.8-64.76-26.51c-14.57-14.03-21.86-31.91-21.86-53.63c0-26.44,11.8-48.57,35.42-66.38
	c22.26-16.73,47.29-24.49,75.08-23.27c36.43,1.62,64.22,9.18,83.38,22.67l-20.84,58.89c-0.54-1.08-6.14-3.85-16.8-8.3
	c-13.76-5.67-26.78-8.7-39.06-9.11c-5.8-0.13-10.73,1.01-14.77,3.44c-4.72,2.7-7.02,6.48-6.88,11.33
	c0.13,5.13,4.18,9.38,12.14,12.75c5.13,2.3,10.52,3.78,16.19,4.45c22.53,2.7,41.08,10.86,55.65,24.49
	C341.29,491.01,348.65,508.82,347.97,529.87z"/>
<path d="M651.33,360.28L553.58,617.7h-80.95L372.46,360.28h103.61l38.45,131.54l34.81-131.54H651.33z"/>
<path d="M937.48,581.47c-35.75,28.06-75.82,42.16-120.21,42.3c-43.17,0-76.94-11.7-101.29-35.11
	c-24.35-23.41-36.33-55.48-35.92-96.23c0.41-45.6,14.3-80.75,41.69-105.44c24.96-22.53,57.68-33.66,98.15-33.39
	c58.42,0.4,96.73,21.45,114.95,63.14l-85.4,30.56c-6.88-13.08-17.4-19.56-31.57-19.43c-28.87,0.27-43.11,21.32-42.7,63.14
	c0.4,42.37,16.19,63.54,47.36,63.54c12.14,0,20.98-2.16,26.51-6.48V524h-35.42v-58.69h123.85V581.47z"/>
</svg>
